<svg width="79.166748" height="79.166748" viewBox="0 0 79.1667 79.1667" fill="none" xmlns="http://www.w3.org/2000/svg" xmlns:xlink="http://www.w3.org/1999/xlink">
	<desc>
			Created with Pixso.
	</desc>
	<defs/>
	<path id="Vector" d="M29.68 57.39L57.39 39.58L29.68 21.77L29.68 57.39ZM39.58 79.16C34.1 79.16 28.96 78.12 24.14 76.04C19.32 73.96 15.14 71.14 11.57 67.58C8.01 64.02 5.19 59.83 3.11 55.02C1.04 50.2 0 45.05 0 39.58C0 34.1 1.03 28.96 3.11 24.14C5.19 19.32 8.01 15.14 11.57 11.57C15.14 8.01 19.32 5.19 24.14 3.11C28.96 1.04 34.1 0 39.58 0C45.05 0 50.2 1.03 55.02 3.11C59.83 5.19 64.02 8.01 67.58 11.57C71.15 15.14 73.97 19.32 76.05 24.14C78.13 28.96 79.16 34.1 79.16 39.58C79.16 45.05 78.12 50.2 76.04 55.02C73.96 59.83 71.14 64.02 67.58 67.58C64.02 71.15 59.83 73.97 55.02 76.05C50.2 78.13 45.05 79.16 39.58 79.16Z" fill="#BDBDBD" fill-opacity="0.870000" fill-rule="nonzero"/>
</svg>
